<svg width="42" height="26" viewBox="0 0 42 26" fill="none" xmlns="http://www.w3.org/2000/svg">
<path d="M5.26967 4.41986C5.6662 4.50437 5.98473 4.70264 6.22525 5.01467C6.46578 5.32019 6.58604 5.67122 6.58604 6.06776C6.58604 6.63981 6.38452 7.09485 5.98148 7.43288C5.58495 7.76441 5.02915 7.93018 4.31408 7.93018H1.12555V1.08507H4.20682C4.90239 1.08507 5.44518 1.24433 5.83522 1.56286C6.23175 1.88139 6.43002 2.31368 6.43002 2.85972C6.43002 3.26276 6.32276 3.59754 6.10824 3.86406C5.90022 4.13059 5.6207 4.31585 5.26967 4.41986ZM2.79295 3.85431H3.88505C4.15807 3.85431 4.36609 3.79581 4.5091 3.6788C4.65861 3.55529 4.73337 3.37652 4.73337 3.1425C4.73337 2.90848 4.65861 2.72971 4.5091 2.6062C4.36609 2.48269 4.15807 2.42094 3.88505 2.42094H2.79295V3.85431ZM4.02156 6.58456C4.30108 6.58456 4.5156 6.5228 4.66512 6.39929C4.82113 6.26928 4.89914 6.08401 4.89914 5.84349C4.89914 5.60297 4.81788 5.41445 4.65536 5.27794C4.49935 5.14143 4.28158 5.07317 4.00206 5.07317H2.79295V6.58456H4.02156ZM5.66945 12.2498C5.54594 12.0222 5.36718 11.85 5.13316 11.733C4.90564 11.6095 4.63586 11.5477 4.32383 11.5477C3.78429 11.5477 3.352 11.7265 3.02697 12.084C2.70194 12.435 2.53943 12.9063 2.53943 13.4979C2.53943 14.1284 2.70844 14.6225 3.04647 14.98C3.391 15.331 3.86229 15.5065 4.46035 15.5065C4.86988 15.5065 5.21441 15.4025 5.49394 15.1945C5.77996 14.9865 5.98798 14.6875 6.11799 14.2974H4.00206V13.0688H7.62938V14.6192C7.50587 15.0353 7.2946 15.422 6.99557 15.7796C6.70305 16.1371 6.32926 16.4264 5.87422 16.6474C5.41918 16.8684 4.90564 16.9789 4.33359 16.9789C3.65753 16.9789 3.05297 16.8327 2.51992 16.5401C1.99338 16.2411 1.58059 15.8283 1.28156 15.3018C0.989038 14.7752 0.842775 14.1739 0.842775 13.4979C0.842775 12.8218 0.989038 12.2205 1.28156 11.694C1.58059 11.1609 1.99338 10.7481 2.51992 10.4556C3.04647 10.1566 3.64777 10.0071 4.32383 10.0071C5.14291 10.0071 5.83197 10.2053 6.39102 10.6019C6.95657 10.9984 7.33035 11.5477 7.51237 12.2498H5.66945ZM5.09415 25.9302L2.79295 22.9074V25.9302H1.12555V19.0851H2.79295V22.0883L5.07465 19.0851H7.03458L4.38234 22.4394L7.13208 25.9302H5.09415Z" fill="#D11936"/>
<path d="M9.22052 2.42094V3.80556H11.4535V5.09267H9.22052V6.59431H11.746V7.93018H7.55312V1.08507H11.746V2.42094H9.22052ZM12.5457 4.49787C12.5457 3.82181 12.692 3.22051 12.9845 2.69396C13.277 2.16091 13.6833 1.74813 14.2034 1.4556C14.7299 1.15657 15.3247 1.00706 15.9878 1.00706C16.8003 1.00706 17.4959 1.22158 18.0745 1.65062C18.653 2.07965 19.0398 2.66471 19.2348 3.40577H17.4017C17.2651 3.11975 17.0701 2.90198 16.8166 2.75246C16.5696 2.60295 16.2868 2.52819 15.9683 2.52819C15.4547 2.52819 15.0387 2.70696 14.7202 3.06449C14.4016 3.42202 14.2424 3.89982 14.2424 4.49787C14.2424 5.09592 14.4016 5.57372 14.7202 5.93125C15.0387 6.28878 15.4547 6.46755 15.9683 6.46755C16.2868 6.46755 16.5696 6.39279 16.8166 6.24328C17.0701 6.09376 17.2651 5.87599 17.4017 5.58997H19.2348C19.0398 6.33103 18.653 6.91609 18.0745 7.34512C17.4959 7.76766 16.8003 7.97893 15.9878 7.97893C15.3247 7.97893 14.7299 7.83267 14.2034 7.54014C13.6833 7.24111 13.277 6.82833 12.9845 6.30178C12.692 5.77523 12.5457 5.17393 12.5457 4.49787ZM23.4932 7.99843C22.8496 7.99843 22.2581 7.84892 21.7185 7.54989C21.1855 7.25087 20.7597 6.83483 20.4412 6.30178C20.1292 5.76223 19.9731 5.15768 19.9731 4.48812C19.9731 3.81856 20.1292 3.21726 20.4412 2.68421C20.7597 2.15116 21.1855 1.73512 21.7185 1.4361C22.2581 1.13707 22.8496 0.987558 23.4932 0.987558C24.1368 0.987558 24.7251 1.13707 25.2581 1.4361C25.7977 1.73512 26.2202 2.15116 26.5257 2.68421C26.8378 3.21726 26.9938 3.81856 26.9938 4.48812C26.9938 5.15768 26.8378 5.76223 26.5257 6.30178C26.2137 6.83483 25.7912 7.25087 25.2581 7.54989C24.7251 7.84892 24.1368 7.99843 23.4932 7.99843ZM23.4932 6.4773C24.0393 6.4773 24.4748 6.29528 24.7998 5.93125C25.1313 5.56722 25.2971 5.08617 25.2971 4.48812C25.2971 3.88357 25.1313 3.40252 24.7998 3.04499C24.4748 2.68096 24.0393 2.49894 23.4932 2.49894C22.9407 2.49894 22.4986 2.67771 22.1671 3.03524C21.8421 3.39277 21.6795 3.87706 21.6795 4.48812C21.6795 5.09267 21.8421 5.57697 22.1671 5.941C22.4986 6.29853 22.9407 6.4773 23.4932 6.4773ZM35.6733 1.08507V7.93018H34.0059V3.82506L32.475 7.93018H31.1294L29.5888 3.81531V7.93018H27.9214V1.08507H29.8911L31.812 5.82399L33.7134 1.08507H35.6733ZM38.5398 2.42094V3.80556H40.7727V5.09267H38.5398V6.59431H41.0653V7.93018H36.8724V1.08507H41.0653V2.42094H38.5398ZM11.7903 16.9984C11.1467 16.9984 10.5551 16.8489 10.0156 16.5499C9.48255 16.2509 9.05676 15.8348 8.73824 15.3018C8.42621 14.7622 8.27019 14.1577 8.27019 13.4881C8.27019 12.8186 8.42621 12.2173 8.73824 11.6842C9.05676 11.1512 9.48255 10.7351 10.0156 10.4361C10.5551 10.1371 11.1467 9.98756 11.7903 9.98756C12.4338 9.98756 13.0221 10.1371 13.5552 10.4361C14.0947 10.7351 14.5172 11.1512 14.8228 11.6842C15.1348 12.2173 15.2908 12.8186 15.2908 13.4881C15.2908 14.1577 15.1348 14.7622 14.8228 15.3018C14.5107 15.8348 14.0882 16.2509 13.5552 16.5499C13.0221 16.8489 12.4338 16.9984 11.7903 16.9984ZM11.7903 15.4773C12.3363 15.4773 12.7718 15.2953 13.0969 14.9312C13.4284 14.5672 13.5942 14.0862 13.5942 13.4881C13.5942 12.8836 13.4284 12.4025 13.0969 12.045C12.7718 11.681 12.3363 11.4989 11.7903 11.4989C11.2377 11.4989 10.7957 11.6777 10.4641 12.0352C10.1391 12.3928 9.9766 12.8771 9.9766 13.4881C9.9766 14.0927 10.1391 14.577 10.4641 14.941C10.7957 15.2985 11.2377 15.4773 11.7903 15.4773ZM19.4557 16.9984C18.8122 16.9984 18.2206 16.8489 17.6811 16.5499C17.148 16.2509 16.7222 15.8348 16.4037 15.3018C16.0917 14.7622 15.9357 14.1577 15.9357 13.4881C15.9357 12.8186 16.0917 12.2173 16.4037 11.6842C16.7222 11.1512 17.148 10.7351 17.6811 10.4361C18.2206 10.1371 18.8122 9.98756 19.4557 9.98756C20.0993 9.98756 20.6876 10.1371 21.2206 10.4361C21.7602 10.7351 22.1827 11.1512 22.4883 11.6842C22.8003 12.2173 22.9563 12.8186 22.9563 13.4881C22.9563 14.1577 22.8003 14.7622 22.4883 15.3018C22.1762 15.8348 21.7537 16.2509 21.2206 16.5499C20.6876 16.8489 20.0993 16.9984 19.4557 16.9984ZM19.4557 15.4773C20.0018 15.4773 20.4373 15.2953 20.7623 14.9312C21.0939 14.5672 21.2596 14.0862 21.2596 13.4881C21.2596 12.8836 21.0939 12.4025 20.7623 12.045C20.4373 11.681 20.0018 11.4989 19.4557 11.4989C18.9032 11.4989 18.4611 11.6777 18.1296 12.0352C17.8046 12.3928 17.6421 12.8771 17.6421 13.4881C17.6421 14.0927 17.8046 14.577 18.1296 14.941C18.4611 15.2985 18.9032 15.4773 19.4557 15.4773ZM26.4484 10.0851C27.17 10.0851 27.8005 10.2281 28.3401 10.5141C28.8796 10.8001 29.2957 11.2032 29.5882 11.7232C29.8872 12.2368 30.0367 12.8316 30.0367 13.5076C30.0367 14.1772 29.8872 14.772 29.5882 15.292C29.2957 15.8121 28.8764 16.2151 28.3303 16.5011C27.7908 16.7872 27.1635 16.9302 26.4484 16.9302H23.8839V10.0851H26.4484ZM26.3411 15.487C26.9717 15.487 27.4625 15.3148 27.8135 14.9703C28.1646 14.6257 28.3401 14.1382 28.3401 13.5076C28.3401 12.8771 28.1646 12.3863 27.8135 12.0352C27.4625 11.6842 26.9717 11.5087 26.3411 11.5087H25.5513V15.487H26.3411ZM9.59189 19.0851V25.9302H7.92449V19.0851H9.59189ZM16.9238 25.9302H15.2564L12.4676 21.708V25.9302H10.8002V19.0851H12.4676L15.2564 23.3267V19.0851H16.9238V25.9302ZM20.6969 19.0851C21.4185 19.0851 22.049 19.2281 22.5886 19.5141C23.1281 19.8001 23.5442 20.2032 23.8367 20.7232C24.1357 21.2368 24.2852 21.8316 24.2852 22.5076C24.2852 23.1772 24.1357 23.772 23.8367 24.292C23.5442 24.8121 23.1249 25.2151 22.5788 25.5011C22.0393 25.7872 21.412 25.9302 20.6969 25.9302H18.1324V19.0851H20.6969ZM20.5897 24.487C21.2202 24.487 21.711 24.3148 22.062 23.9703C22.4131 23.6257 22.5886 23.1382 22.5886 22.5076C22.5886 21.8771 22.4131 21.3863 22.062 21.0352C21.711 20.6842 21.2202 20.5087 20.5897 20.5087H19.7998V24.487H20.5897Z" fill="#767F85"/>
</svg>
